<svg width="87" height="84" viewBox="0 0 87 84" fill="none" xmlns="http://www.w3.org/2000/svg">
<path d="M52.3908 83.0031C51.2866 83.0031 50.1484 82.9521 49.0442 82.8332C41.2297 82.0687 33.874 78.5692 28.3189 73.0141C24.8873 69.5826 22.2712 65.5395 20.5554 61.0207C20.5214 60.9187 20.4365 60.8678 20.3346 60.8678H8.25614C7.45771 60.8678 6.79518 60.2052 6.79518 59.4068C6.79518 58.6084 7.45771 57.9458 8.25614 57.9458H19.2643C19.3323 57.9458 19.4172 57.9119 19.4512 57.8439C19.5022 57.793 19.5191 57.708 19.4852 57.6401C18.9246 55.5336 18.5678 53.3421 18.4319 51.1507C18.4319 51.0318 18.313 50.9298 18.1941 50.9298H10.6344C9.83602 50.9298 9.17349 50.2673 9.17349 49.4689C9.17349 48.6704 9.83602 48.0079 10.6344 48.0079H18.1431C18.279 48.0079 18.3809 47.906 18.3809 47.7701C18.4489 45.5956 18.7377 43.4042 19.2134 41.2807C19.2303 41.2127 19.2134 41.1278 19.1624 41.0768C19.1114 41.0259 19.0435 40.9919 18.9755 40.9919H1.46096C0.66253 40.9919 0 40.3294 0 39.5309C0 38.7325 0.66253 38.07 1.46096 38.07H19.9438C20.0458 38.07 20.1307 38.002 20.1647 37.9001C20.9291 35.6407 21.9314 33.4662 23.1546 31.4107C23.2055 31.3427 23.2055 31.2408 23.1546 31.1729C23.1036 31.1049 23.0356 31.0539 22.9507 31.0539H13.0467C12.2483 31.0539 11.5858 30.3914 11.5858 29.593C11.5858 28.7945 12.2483 28.132 13.0467 28.132H25.1422C25.1761 28.132 25.2101 28.132 25.2441 28.132H25.2611C25.329 28.132 25.414 28.098 25.4479 28.0471C26.3313 26.9089 27.2826 25.8217 28.3189 24.8024C32.8886 20.2326 38.6306 17.0729 44.9331 15.6629C45.035 15.6459 45.12 15.544 45.12 15.425V11.1441C45.12 11.0252 45.052 10.9402 44.9331 10.9063C42.4529 10.2947 40.7371 8.08626 40.7371 5.53807C40.7371 2.48024 43.2173 0 46.2751 0H58.5065C61.5643 0 64.0445 2.48024 64.0445 5.53807C64.0445 8.08626 62.3118 10.2947 59.8485 10.9063C59.7466 10.9402 59.6616 11.0252 59.6616 11.1441V15.459C59.6616 15.5779 59.7466 15.6629 59.8485 15.6969C66.168 17.0899 71.9269 20.2666 76.5137 24.8533C82.0687 30.4084 85.5513 37.7642 86.3327 45.5616C87.0972 53.2572 85.2115 61.0376 81.0325 67.4931C80.7607 67.9008 80.302 68.1556 79.8093 68.1556C79.5205 68.1556 79.2487 68.0707 79.0109 67.9178C78.6881 67.7139 78.4673 67.3741 78.3823 67.0004C78.2974 66.6267 78.3654 66.236 78.5862 65.8962C86.5366 53.6479 84.8038 37.2545 74.4581 26.9259C68.5803 21.0481 60.7489 17.8203 52.4248 17.8203C44.1007 17.8203 36.2692 21.0481 30.3914 26.9259C24.5136 32.8037 21.2859 40.6182 21.2859 48.9592C21.2859 57.2833 24.5136 65.1148 30.3914 70.9926C36.2523 76.8534 44.1007 80.0981 52.4927 80.0981C58.5404 80.0981 64.3843 78.3653 69.4127 75.1037C69.6506 74.9508 69.9224 74.8658 70.2112 74.8658C70.7038 74.8658 71.1625 75.1207 71.4343 75.5284C71.876 76.2079 71.6891 77.1082 71.0096 77.5499C65.4715 81.1174 59.0501 83.0031 52.3908 83.0031ZM48.2797 11.0761C48.1438 11.0761 48.0419 11.1781 48.0419 11.314V14.8814C48.0419 14.9494 48.0759 15.0173 48.1268 15.0683C48.1778 15.1023 48.2288 15.1362 48.2797 15.1362C48.2967 15.1362 48.2967 15.1362 48.3137 15.1362C49.6727 14.9664 51.0488 14.8814 52.4248 14.8814C53.7838 14.8814 55.1428 14.9664 56.4849 15.1193C56.5019 15.1193 56.5019 15.1193 56.5189 15.1193C56.5698 15.1193 56.6378 15.1023 56.6718 15.0513C56.7227 15.0003 56.7567 14.9324 56.7567 14.8644V11.297C56.7567 11.1611 56.6548 11.0591 56.5189 11.0591H48.2797V11.0761ZM46.2751 2.92192C44.8312 2.92192 43.659 4.09409 43.659 5.53807C43.659 6.98204 44.8312 8.15421 46.2751 8.15421H58.5065C59.9504 8.15421 61.1226 6.98204 61.1226 5.53807C61.1226 4.09409 59.9504 2.92192 58.5065 2.92192H46.2751Z" fill="#262626"/>
<path d="M75.4922 73.455C75.1015 73.455 74.7278 73.3021 74.4559 73.0303C74.1841 72.7585 74.0312 72.3848 74.0312 71.994C74.0312 71.6033 74.1841 71.2296 74.4559 70.9578C74.7278 70.686 75.1015 70.5331 75.4922 70.5331C75.8659 70.5331 76.2567 70.686 76.5285 70.9578C76.8003 71.2296 76.9532 71.6033 76.9532 71.994C76.9532 72.3848 76.8003 72.7585 76.5285 73.0303C76.2397 73.3021 75.8659 73.455 75.4922 73.455Z" fill="#262626"/>
<path d="M52.423 75.0525C38.0172 75.0525 26.3125 63.3308 26.3125 48.942C26.3125 34.5362 38.0342 22.8315 52.423 22.8315C66.8287 22.8315 78.5334 34.5532 78.5334 48.942C78.5334 63.3308 66.8117 75.0525 52.423 75.0525ZM52.423 25.7365C39.631 25.7365 29.2344 36.1501 29.2344 48.925C29.2344 61.6999 39.648 72.1135 52.423 72.1135C65.1979 72.1135 75.6115 61.6999 75.6115 48.925C75.6115 36.1501 65.2149 25.7365 52.423 25.7365Z" fill="#CA0100"/>
<path d="M52.4256 53.9712C49.6396 53.9712 47.3802 51.7118 47.3802 48.9258C47.3802 48.1444 47.5501 47.3969 47.9068 46.7004C47.9578 46.6154 47.9408 46.4965 47.8558 46.4286L44.0845 42.6573C43.5239 42.0967 43.5239 41.1623 44.0845 40.6017C44.3563 40.3299 44.7301 40.177 45.1208 40.177C45.5115 40.177 45.8682 40.3299 46.157 40.6017L49.9284 44.373C49.9793 44.424 50.0303 44.441 50.0982 44.441C50.1322 44.441 50.1662 44.441 50.2002 44.424C50.8967 44.0842 51.6441 43.8974 52.4256 43.8974C53.207 43.8974 53.9545 44.0673 54.651 44.424C54.685 44.441 54.719 44.441 54.7529 44.441C54.8209 44.441 54.8719 44.424 54.9228 44.373L63.3318 35.964C63.6037 35.6922 63.9774 35.5393 64.3681 35.5393C64.7588 35.5393 65.1156 35.6922 65.4044 35.964C65.6762 36.2358 65.8291 36.6095 65.8291 37.0003C65.8291 37.391 65.6762 37.7477 65.4044 38.0365L56.9953 46.4456C56.9274 46.5135 56.9104 46.6324 56.9444 46.7174C57.2841 47.4139 57.471 48.1613 57.471 48.9428C57.454 51.7118 55.1946 53.9712 52.4256 53.9712ZM52.4256 46.8193C51.2534 46.8193 50.3021 47.7706 50.3021 48.9428C50.3021 50.115 51.2534 51.0663 52.4256 51.0663C53.5978 51.0663 54.5491 50.115 54.5491 48.9428C54.5491 47.7706 53.5978 46.8193 52.4256 46.8193Z" fill="#262626"/>
<path d="M69.0078 50.4218C68.2094 50.4218 67.5469 49.7593 67.5469 48.9608C67.5469 48.1624 68.2094 47.4999 69.0078 47.4999H70.5877C71.3861 47.4999 72.0487 48.1624 72.0487 48.9608C72.0487 49.7593 71.3861 50.4218 70.5877 50.4218H69.0078Z" fill="#262626"/>
<path d="M34.2656 50.3698C33.4672 50.3698 32.8047 49.7073 32.8047 48.9088C32.8047 48.1104 33.4672 47.4479 34.2656 47.4479H35.8455C36.644 47.4479 37.3065 48.1104 37.3065 48.9088C37.3065 49.7073 36.644 50.3698 35.8455 50.3698H34.2656Z" fill="#262626"/>
<path d="M52.4453 33.807C51.6469 33.807 50.9844 33.1444 50.9844 32.346V30.7661C50.9844 29.9677 51.6469 29.3052 52.4453 29.3052C53.2438 29.3052 53.9063 29.9677 53.9063 30.7661V32.346C53.9063 33.1444 53.2438 33.807 52.4453 33.807Z" fill="#262626"/>
<path d="M52.4063 68.5645C51.6078 68.5645 50.9453 67.902 50.9453 67.1036V65.5237C50.9453 64.7253 51.6078 64.0627 52.4063 64.0627C53.2047 64.0627 53.8672 64.7253 53.8672 65.5237V67.1036C53.8503 67.902 53.2047 68.5645 52.4063 68.5645Z" fill="#262626"/>
<path d="M1.46096 60.8678C1.07024 60.8678 0.696505 60.7149 0.424698 60.4431C0.152891 60.1713 0 59.7976 0 59.4238C0 59.0331 0.152891 58.6594 0.424698 58.3876C0.696505 58.1158 1.07024 57.9629 1.46096 57.9629C1.85169 57.9629 2.22542 58.1158 2.49723 58.3876C2.76903 58.6594 2.92193 59.0331 2.92193 59.4238C2.92193 59.8146 2.76903 60.1883 2.49723 60.4601C2.22542 60.7149 1.8347 60.8678 1.46096 60.8678Z" fill="#262626"/>
</svg>
