<svg width="79" height="79" viewBox="0 0 79 79" fill="none" xmlns="http://www.w3.org/2000/svg">
<circle cx="39.5" cy="39.5" r="39.5" fill="white"/>
<path d="M52.8 31H50.8656C51.1003 30.2221 51.2131 29.4125 51.2 28.6C51.2 25.512 48.688 23 45.6 23C43.0048 23 41.272 25.3712 40.1536 27.936C39.0512 25.512 37.2304 23 34.4 23C31.312 23 28.8 25.512 28.8 28.6C28.8 29.5536 28.9264 30.3424 29.1344 31H27.2C25.4352 31 24 32.4352 24 34.2V37.4C24 39.1648 25.4352 40.6 27.2 40.6V51.8C27.2 53.5648 28.6352 55 30.4 55H49.6C51.3648 55 52.8 53.5648 52.8 51.8V40.6C54.5648 40.6 56 39.1648 56 37.4V34.2C56 32.4352 54.5648 31 52.8 31ZM45.6 26.2C46.9232 26.2 48 27.2768 48 28.6C48 31 46.9984 31 46.4 31H42.4352C43.2528 28.4784 44.44 26.2 45.6 26.2ZM32 28.6C32 27.2768 33.0768 26.2 34.4 26.2C35.8208 26.2 37.1424 28.64 37.9168 31H33.6C33.0016 31 32 31 32 28.6ZM27.2 34.2H38.4V37.4H27.2V34.2ZM30.4 51.8V40.6H38.4V51.8H30.4ZM49.6 51.8H41.6V40.6H49.6V51.8ZM41.6 37.4V34.336L41.6272 34.2H52.8L52.8016 37.4H41.6Z" fill="#262626"/>
</svg>
