<svg width="82" height="77" viewBox="0 0 82 77" fill="none" xmlns="http://www.w3.org/2000/svg">
<path d="M72.0289 0H9.51324C4.26397 0 0 4.26397 0 9.51324V53.0024C0 58.2516 4.26397 62.5156 9.51324 62.5156H30.7821L27.5205 73.3879H23.1036V76.106H58.4385V73.3879H54.0216L50.76 62.5156H72.0289C77.2781 62.5156 81.5421 58.2516 81.5421 53.0024V9.51324C81.5421 4.26397 77.2781 0 72.0289 0ZM51.1677 73.3879H30.3744L33.6361 62.5156H47.906L51.1677 73.3879ZM78.824 53.0024C78.824 56.7567 75.7832 59.7975 72.0289 59.7975H9.51324C5.75891 59.7975 2.71807 56.7567 2.71807 53.0024V51.6433H78.824V53.0024ZM78.824 48.9253H2.71807V9.51324C2.71807 5.75891 5.75891 2.71807 9.51324 2.71807H72.0289C75.7832 2.71807 78.824 5.75891 78.824 9.51324V48.9253Z" fill="#262626"/>
<path d="M57.0774 19.0273H53.6798L50.0105 14.1348C49.7556 13.795 49.3479 13.5912 48.9232 13.5912H35.3329C34.9082 13.5912 34.5005 13.795 34.2456 14.1348L30.4743 19.1632L24.1888 20.4203C23.5602 20.5562 23.1016 21.0999 23.1016 21.7454V28.5406C23.1016 29.288 23.7131 29.8996 24.4606 29.8996H28.7925C29.523 32.0061 31.8334 33.1273 33.9569 32.3968C35.129 31.9891 36.0464 31.0718 36.4541 29.8996H45.1009C45.8314 32.0061 48.1418 33.1273 50.2653 32.3968C51.4374 31.9891 52.3548 31.0718 52.7625 29.8996H57.0774C57.8249 29.8996 58.4365 29.288 58.4365 28.5406V20.3864C58.4365 19.6389 57.8249 19.0273 57.0774 19.0273ZM32.6148 29.8996C31.8673 29.8996 31.2558 29.288 31.2558 28.5406C31.2558 27.7931 31.8673 27.1815 32.6148 27.1815C33.3623 27.1815 33.9738 27.7931 33.9738 28.5406C33.9738 29.288 33.3623 29.8996 32.6148 29.8996ZM48.9232 29.8996C48.1758 29.8996 47.5642 29.288 47.5642 28.5406C47.5642 27.7931 48.1758 27.1815 48.9232 27.1815C49.6707 27.1815 50.2823 27.7931 50.2823 28.5406C50.2823 29.288 49.6707 29.8996 48.9232 29.8996ZM55.7184 27.1815H52.7625C52.7455 27.1306 52.7285 27.0966 52.7115 27.0456C52.6776 26.9777 52.6436 26.8927 52.6096 26.8248C52.5417 26.6719 52.4567 26.536 52.3718 26.3831C52.3378 26.3152 52.2868 26.2472 52.2529 26.1792C52.1339 26.0264 52.015 25.8735 51.8791 25.7206C51.8451 25.6866 51.8282 25.6526 51.7942 25.6356C51.6243 25.4658 51.4374 25.3129 51.2506 25.177C51.1996 25.143 51.1317 25.109 51.0807 25.075C50.9278 24.9901 50.7749 24.9052 50.622 24.8202C50.5541 24.7862 50.4691 24.7523 50.4012 24.7183C50.2483 24.6503 50.0784 24.5994 49.9085 24.5654C49.8406 24.5484 49.7556 24.5314 49.6877 24.5144C49.195 24.4125 48.6854 24.4125 48.1927 24.5144C48.1248 24.5314 48.0399 24.5484 47.9719 24.5654C47.802 24.5994 47.6491 24.6503 47.4793 24.7183C47.3943 24.7523 47.3264 24.7862 47.2584 24.8202C47.1055 24.8882 46.9526 24.9731 46.7997 25.075C46.7488 25.109 46.6808 25.143 46.6299 25.177C46.443 25.3129 46.2561 25.4658 46.0862 25.6356C46.0523 25.6696 46.0353 25.7036 46.0013 25.7206C45.8654 25.8565 45.7465 26.0094 45.6276 26.1792C45.5766 26.2472 45.5426 26.3152 45.5086 26.3831C45.4237 26.519 45.3388 26.6719 45.2708 26.8248C45.2368 26.8927 45.2029 26.9777 45.1689 27.0456C45.1519 27.0966 45.1349 27.1306 45.1179 27.1815H36.4881C36.4711 27.1306 36.4541 27.0966 36.4371 27.0456C36.4031 26.9777 36.3691 26.8927 36.3352 26.8248C36.2672 26.6719 36.1823 26.536 36.0973 26.3831C36.0634 26.3152 36.0124 26.2472 35.9784 26.1792C35.8595 26.0264 35.7406 25.8735 35.6047 25.7206C35.5707 25.6866 35.5537 25.6526 35.5197 25.6356C35.3499 25.4658 35.163 25.3129 34.9761 25.177C34.9252 25.143 34.8572 25.109 34.8062 25.075C34.6534 24.9901 34.5005 24.9052 34.3476 24.8202C34.2796 24.7862 34.1947 24.7523 34.1267 24.7183C33.9738 24.6503 33.804 24.5994 33.6341 24.5654C33.5661 24.5484 33.4812 24.5314 33.4132 24.5144C32.9206 24.4125 32.411 24.4125 31.9183 24.5144C31.8503 24.5314 31.7654 24.5484 31.6975 24.5654C31.5276 24.5994 31.3747 24.6503 31.2048 24.7183C31.1199 24.7523 31.0519 24.7862 30.984 24.8202C30.8311 24.8882 30.6782 24.9731 30.5253 25.075C30.4743 25.109 30.4064 25.143 30.3554 25.177C30.1685 25.3129 29.9817 25.4658 29.8118 25.6356C29.7778 25.6696 29.7608 25.7036 29.7269 25.7206C29.591 25.8565 29.472 26.0094 29.3531 26.1792C29.3022 26.2472 29.2682 26.3152 29.2342 26.3831C29.1493 26.519 29.0643 26.6719 28.9964 26.8248C28.9624 26.8927 28.9284 26.9777 28.8944 27.0456C28.8775 27.0966 28.8605 27.1306 28.8435 27.1815H25.8196V22.8496L31.5276 21.7114C31.8504 21.6435 32.1391 21.4566 32.343 21.2018L36.0124 16.3093H48.2437L51.9131 21.2018C52.1679 21.5415 52.5756 21.7454 53.0003 21.7454H55.7184V27.1815Z" fill="#CA0100"/>
<path d="M25.4357 11.2623C25.1809 11.0075 24.8411 10.8716 24.4674 10.8716H19.0312V13.5897H23.9068L27.5932 17.276L29.5128 15.3564L25.4357 11.2623Z" fill="#CA0100"/>
<path d="M76.1067 8.15466H65.2344V10.8727H76.1067V8.15466Z" fill="#262626"/>
<path d="M76.1067 13.5912H65.2344V16.3093H76.1067V13.5912Z" fill="#262626"/>
<path d="M76.1067 21.7441H65.2344V24.4622H76.1067V21.7441Z" fill="#262626"/>
<path d="M76.1067 27.1808H65.2344V29.8989H76.1067V27.1808Z" fill="#262626"/>
<path d="M57.077 10.8716C56.7203 10.8716 56.3635 11.0075 56.1087 11.2623L53.3906 13.9804L55.3103 15.9L57.6376 13.5897H62.5132V10.8716H57.077Z" fill="#CA0100"/>
<path d="M16.3098 8.15466H5.4375V10.8727H16.3098V8.15466Z" fill="#262626"/>
<path d="M16.3098 13.5912H5.4375V16.3093H16.3098V13.5912Z" fill="#262626"/>
<path d="M16.3098 21.7441H5.4375V24.4622H16.3098V21.7441Z" fill="#262626"/>
<path d="M16.3098 27.1808H5.4375V29.8989H16.3098V27.1808Z" fill="#262626"/>
<path d="M13.5921 36.6941H8.15591C7.40844 36.6941 6.79688 37.3057 6.79688 38.0531V43.4893C6.79688 44.2367 7.40844 44.8483 8.15591 44.8483H13.5921C14.3395 44.8483 14.9511 44.2367 14.9511 43.4893V38.0531C14.9511 37.3057 14.3395 36.6941 13.5921 36.6941ZM12.233 42.1302H9.51495V39.4122H12.233V42.1302Z" fill="#CA0100"/>
<path d="M29.8961 35.3353H21.7418C20.9944 35.3353 20.3828 35.9469 20.3828 36.6944V44.8486C20.3828 45.596 20.9944 46.2076 21.7418 46.2076H29.8961C30.6435 46.2076 31.2551 45.596 31.2551 44.8486V36.6944C31.2551 35.9469 30.6435 35.3353 29.8961 35.3353ZM28.537 43.4895H23.1009V38.0534H28.537V43.4895Z" fill="#CA0100"/>
<path d="M43.4905 36.6941H38.0543C37.3069 36.6941 36.6953 37.3057 36.6953 38.0531V43.4893C36.6953 44.2367 37.3069 44.8483 38.0543 44.8483H43.4905C44.238 44.8483 44.8495 44.2367 44.8495 43.4893V38.0531C44.8495 37.3057 44.238 36.6941 43.4905 36.6941ZM42.1315 42.1302H39.4134V39.4122H42.1315V42.1302Z" fill="#CA0100"/>
<path d="M58.4358 36.6941H52.9997C52.2522 36.6941 51.6406 37.3057 51.6406 38.0531V43.4893C51.6406 44.2367 52.2522 44.8483 52.9997 44.8483H58.4358C59.1833 44.8483 59.7948 44.2367 59.7948 43.4893V38.0531C59.7948 37.3057 59.1833 36.6941 58.4358 36.6941ZM57.0768 42.1302H54.3587V39.4122H57.0768V42.1302Z" fill="#CA0100"/>
<path d="M73.3889 36.6941H67.9528C67.2053 36.6941 66.5938 37.3057 66.5938 38.0531V43.4893C66.5938 44.2367 67.2053 44.8483 67.9528 44.8483H73.3889C74.1364 44.8483 74.748 44.2367 74.748 43.4893V38.0531C74.748 37.3057 74.1364 36.6941 73.3889 36.6941ZM72.0299 42.1302H69.3118V39.4122H72.0299V42.1302Z" fill="#CA0100"/>
<path d="M50.2843 8.15466H31.2578V10.8727H50.2843V8.15466Z" fill="#CA0100"/>
</svg>
