<svg width="98" height="72" viewBox="0 0 98 72" fill="none" xmlns="http://www.w3.org/2000/svg">
<path d="M77.5472 71.0691C74.2109 71.0691 71.1 69.2808 69.4469 66.3953C69.3717 66.275 69.2515 66.1999 69.1162 66.1999H29.1554C29.0201 66.1999 28.8848 66.275 28.8247 66.3953C27.9982 67.823 26.8259 69.0102 25.3982 69.8218C23.9855 70.6333 22.3625 71.0691 20.7394 71.0691C17.403 71.0691 14.2921 69.2808 12.639 66.3953C12.5639 66.275 12.4436 66.1999 12.3084 66.1999H7.73969C7.3189 66.1999 6.94318 65.9895 6.70273 65.6438L0.210399 55.9054C0.0751427 55.695 0 55.4545 0 55.214V50.3448C0 50.0142 0.135257 49.6986 0.360685 49.4731L3.12593 46.7079C3.20108 46.6327 3.23113 46.5426 3.23113 46.4374V40.6213C3.23113 40.2607 3.38142 39.915 3.66696 39.6745L13.706 31.0782C13.7812 31.0031 13.8413 30.9129 13.8413 30.8077C13.8413 30.7025 13.8112 30.5973 13.7361 30.5222L11.7223 28.4933C11.4818 28.2529 11.3616 27.9523 11.3616 27.6217V25.9986C11.3616 25.3223 11.9176 24.7662 12.5939 24.7662H50.9016C52.645 24.7662 54.3732 25.3674 55.7258 26.4645L69.7324 37.6757C69.8075 37.7359 69.8827 37.7659 69.9729 37.7659H79.1403C88.7585 37.7809 96.6034 45.6108 96.6184 55.2441V64.9826C96.6184 65.6589 96.0624 66.2149 95.3861 66.2149H85.9632C85.828 66.2149 85.6927 66.2901 85.6326 66.4103C84.806 67.838 83.6338 69.0253 82.2061 69.8368C80.7934 70.6333 79.1703 71.0691 77.5472 71.0691ZM77.5322 54.8233C73.745 54.8233 70.6491 57.9042 70.6491 61.7064C70.6491 65.5086 73.73 68.5894 77.5322 68.5894C81.3194 68.5894 84.4002 65.4936 84.4153 61.7064C84.4153 57.9192 81.3344 54.8233 77.5322 54.8233ZM20.7243 54.8233C16.9372 54.8233 13.8413 57.9042 13.8413 61.7064C13.8413 65.5086 16.9221 68.5894 20.7243 68.5894C24.5115 68.5894 27.5924 65.4936 27.6074 61.7064C27.5924 57.9192 24.5115 54.8233 20.7243 54.8233ZM77.5322 52.3436C78.0582 52.3436 78.5842 52.3887 79.1102 52.4789C84.1898 53.3505 87.6314 58.1897 86.7597 63.2693C86.7447 63.3745 86.7748 63.4948 86.8499 63.5849C86.925 63.6751 87.0302 63.7202 87.1505 63.7202H93.778C93.9884 63.7202 94.1688 63.5549 94.1688 63.3294V55.214C94.1688 54.658 94.1387 54.1019 94.0786 53.5459C94.0636 53.3505 93.8983 53.2002 93.7029 53.2002H90.5469C90.3515 53.2002 90.1712 53.1551 89.9909 53.065L83.4985 49.8188C83.0777 49.6084 82.8072 49.1876 82.8072 48.7067V45.4605C82.8072 44.7842 83.3633 44.2282 84.0546 44.2282H88.3528C88.5181 44.2282 88.6533 44.123 88.7134 43.9727C88.7735 43.8224 88.7134 43.6421 88.5932 43.5519C85.9482 41.4028 82.6118 40.2156 79.2004 40.2156H17.4782C17.1776 40.2156 16.8921 40.1104 16.6666 39.915C16.4112 39.6896 16.2609 39.389 16.2458 39.0584C16.2308 38.7277 16.336 38.4121 16.5464 38.1567L25.5485 27.8621C25.6537 27.7419 25.6687 27.5916 25.6086 27.4563C25.5485 27.3211 25.4132 27.2309 25.263 27.2309H14.8933C14.743 27.2309 14.5927 27.3211 14.5326 27.4714C14.4725 27.6217 14.5025 27.787 14.6228 27.8922L16.7268 29.9962C16.7418 30.0112 16.7718 30.0413 16.7869 30.0713C16.9973 30.3268 17.1025 30.6424 17.0874 30.973C17.0574 31.3036 16.9071 31.6042 16.6516 31.8146L8.62638 38.6977C8.50615 38.8029 8.46106 38.9682 8.52118 39.1185C8.58129 39.2688 8.71655 39.374 8.88186 39.374H12.6089C13.2852 39.374 13.8413 39.93 13.8413 40.6063V43.8525C13.8413 44.1831 13.706 44.4987 13.4806 44.7241L10.2344 47.9703C9.99397 48.2107 9.6934 48.331 9.36278 48.331H5.15479C5.04959 48.331 4.95942 48.3761 4.88427 48.4362L2.58491 50.7355C2.50977 50.8107 2.47971 50.9009 2.47971 51.0061V54.7181C2.47971 54.7932 2.49474 54.8684 2.53982 54.9285L8.28072 63.5399C8.35586 63.6451 8.47609 63.7052 8.59632 63.7052H11.1211C11.2413 63.7052 11.3465 63.6601 11.4217 63.5699C11.4968 63.4797 11.5269 63.3745 11.5119 63.2543C11.3315 62.2173 11.3315 61.1503 11.5119 60.1133C12.2783 55.6048 16.1557 52.3286 20.7243 52.3286C21.2503 52.3286 21.7763 52.3737 22.3023 52.4638C24.767 52.8846 26.9161 54.2372 28.3588 56.2811C29.8016 58.325 30.3727 60.8047 29.9519 63.2693C29.9368 63.3745 29.9669 63.4948 30.042 63.5849C30.1172 63.6751 30.2224 63.7202 30.3426 63.7202H67.929C68.0492 63.7202 68.1544 63.6751 68.2295 63.5849C68.3047 63.4948 68.3347 63.3896 68.3197 63.2693C68.1394 62.2324 68.1394 61.1653 68.3197 60.1284C69.0862 55.6198 72.9485 52.3436 77.5322 52.3436ZM85.6476 46.7079C85.4372 46.7079 85.2569 46.8732 85.2569 47.0986V47.7148C85.2569 47.8651 85.332 48.0003 85.4673 48.0605L90.7273 50.6905C90.7874 50.7205 90.8325 50.7355 90.8926 50.7355H92.9214C93.0416 50.7355 93.1619 50.6754 93.237 50.5702C93.3122 50.465 93.3272 50.3448 93.2821 50.2246C92.8613 49.0523 92.3052 47.9252 91.6139 46.8882C91.5388 46.783 91.4186 46.7229 91.2983 46.7229H85.6476V46.7079ZM6.11661 41.8386C5.90621 41.8386 5.72587 42.004 5.72587 42.2294V45.4756C5.72587 45.686 5.89119 45.8663 6.11661 45.8663H8.68649C8.79169 45.8663 8.88186 45.8212 8.95701 45.7611L11.2564 43.4617C11.3315 43.3866 11.3616 43.2964 11.3616 43.1912V42.2294C11.3616 42.019 11.1963 41.8386 10.9708 41.8386H6.11661ZM43.4475 27.2309C43.2371 27.2309 43.0567 27.3962 43.0567 27.6217V37.3601C43.0567 37.5705 43.2221 37.7509 43.4475 37.7509H64.788C64.9533 37.7509 65.1036 37.6457 65.1487 37.4954C65.2088 37.3451 65.1487 37.1648 65.0285 37.0746L54.1929 28.4031C53.2611 27.6667 52.1039 27.261 50.9167 27.2459H43.4475V27.2309ZM29.5762 27.2309C29.471 27.2309 29.3658 27.276 29.2906 27.3662L20.7694 37.1047C20.6642 37.2249 20.6492 37.3752 20.7093 37.5104C20.7694 37.6457 20.9047 37.7359 21.055 37.7359H40.2013C40.4117 37.7359 40.5921 37.5705 40.5921 37.3451V27.6066C40.5921 27.3962 40.4268 27.2159 40.2013 27.2159H29.5762V27.2309Z" fill="#262626"/>
<path d="M23.5794 44.2281H19.4766V46.7079H23.5794V44.2281Z" fill="#262626"/>
<path d="M52.8137 44.2281H48.7109V46.7079H52.8137V44.2281Z" fill="#262626"/>
<path d="M20.7245 62.9386C20.0482 62.9386 19.4922 62.3825 19.4922 61.7062C19.4922 61.0299 20.0482 60.4739 20.7245 60.4739C21.4008 60.4739 21.9569 61.0299 21.9569 61.7062C21.9569 62.3825 21.4008 62.9386 20.7245 62.9386Z" fill="#262626"/>
<path d="M77.537 62.9386C76.8607 62.9386 76.3047 62.3825 76.3047 61.7062C76.3047 61.0299 76.8607 60.4739 77.537 60.4739C78.2133 60.4739 78.7694 61.0299 78.7694 61.7062C78.7694 62.3825 78.2283 62.9386 77.537 62.9386Z" fill="#262626"/>
<path d="M46.8427 22.3775C48.8264 11.0309 58.7453 2.37451 70.6629 2.37451C83.9932 2.37451 94.8438 13.2251 94.8438 26.5554C94.8438 31.2593 93.4912 35.6477 91.1618 39.3597L92.9201 40.9978C95.6253 36.8349 97.2033 31.8755 97.2033 26.5554C97.2033 11.9026 85.3007 0 70.6629 0C57.4528 0 46.4519 9.70843 44.4531 22.3775H46.8427Z" fill="#CA0100"/>
<path d="M73.7627 27.7118H70.3963V30.1164H67.7663V27.7118H65.6172V25.5777H67.7663V24.4656H65.6172V22.3316H67.7663V14.8925H73.5823C75.2655 14.8925 76.603 15.3283 77.61 16.1999C78.6169 17.0716 79.1128 18.2438 79.1128 19.6866C79.1128 21.1594 78.6319 22.3316 77.6851 23.1732C76.7233 24.0148 75.4008 24.4506 73.7025 24.4656H70.3963V25.5777H73.7627V27.7118ZM70.3963 22.3316H73.5372C74.484 22.3316 75.2054 22.1062 75.7164 21.6703C76.2123 21.2345 76.4678 20.5732 76.4678 19.7016C76.4678 18.9201 76.2273 18.2889 75.7314 17.793C75.2354 17.297 74.5592 17.0415 73.7025 17.0265H70.3963V22.3316Z" fill="#CA0100"/>
<path d="M52.3637 22.3781C53.9117 13.5864 61.6063 6.89871 70.8338 6.89871C81.1734 6.89871 89.5894 15.3147 89.5894 25.6543C89.5894 29.6068 88.357 33.2888 86.2531 36.3096L88.357 37.4818C90.6414 34.1004 91.9789 30.0276 91.9789 25.6543C91.9789 13.9922 82.4809 4.49414 70.8188 4.49414C60.2687 4.49414 51.4921 12.2639 49.9141 22.3781H52.3637Z" fill="#CA0100"/>
</svg>
