<svg width="79" height="79" viewBox="0 0 79 79" fill="none" xmlns="http://www.w3.org/2000/svg">
<circle cx="39.5" cy="39.5" r="39.5" fill="white"/>
<path d="M54.8214 26H24.1786C23.5267 26 23 26.5484 23 27.2273V51.7727C23 52.4516 23.5267 53 24.1786 53H54.8214C55.4733 53 56 52.4516 56 51.7727V27.2273C56 26.5484 55.4733 26 54.8214 26ZM25.6518 28.7614H53.3482V33.3636H25.6518V28.7614ZM53.3482 50.2386H25.6518V36.7386H53.3482V50.2386ZM44.6194 47.7841H50.6964C50.8585 47.7841 50.9911 47.646 50.9911 47.4773V44.7159C50.9911 44.5472 50.8585 44.4091 50.6964 44.4091H44.6194C44.4574 44.4091 44.3248 44.5472 44.3248 44.7159V47.4773C44.3248 47.646 44.4574 47.7841 44.6194 47.7841Z" fill="#262626"/>
</svg>
