<svg width="85" height="85" viewBox="0 0 85 85" fill="none" xmlns="http://www.w3.org/2000/svg">
<path d="M83.629 76.7729H75.4032V24.6681C75.4032 15.5841 68.0343 8.21397 58.9516 8.21397H55.9183C52.131 0.792466 43.0312 -2.13843 35.628 1.66659C32.8175 3.10633 30.5212 5.40306 29.0817 8.21397H26.0484C16.9657 8.21397 9.59677 15.5841 9.59677 24.6681V76.7729H1.37097C0.616935 76.7729 0 77.39 0 78.1441V83.6288C0 84.383 0.616935 85 1.37097 85H83.629C84.3831 85 85 84.383 85 83.6288V78.1441C85 77.39 84.3831 76.7729 83.629 76.7729ZM58.9516 10.9563C66.5262 10.9563 72.6613 17.0924 72.6613 24.6681V76.7729H67.1774C67.0403 74.4933 66.5776 72.248 65.8064 70.1056V53.4629C65.8064 46.6413 60.2883 41.1223 53.4677 41.1223H49.3548V38.0885C52.628 36.4088 55.1814 33.5808 56.5353 30.1528H57.5806C60.6139 30.1528 63.0645 27.7019 63.0645 24.6681C63.0645 21.6344 60.6139 19.1834 57.5806 19.1834V15.0699C57.5806 13.6815 57.375 12.2932 56.998 10.9563H58.9516ZM28.2591 69.917L35.1139 76.7729H26.1169C26.3054 74.3562 27.0423 72.0081 28.2591 69.917ZM38.9526 76.7729L29.8357 67.6546C30.4869 66.8662 31.2238 66.1292 32.0121 65.4778L41.5232 75.0761C42.0544 75.6074 42.9284 75.6246 43.4597 75.0761L52.9708 65.4778C53.7591 66.1292 54.496 66.8662 55.1472 67.6546L46.0302 76.7729H38.9526ZM45.5161 61.9813C47.3498 62.3241 49.1149 62.9754 50.7258 63.901L42.5 72.1281L38.9526 68.5459L45.5161 61.9813ZM37.0161 66.6091L34.2742 63.8667C36.6048 62.5298 39.2097 61.7757 41.9002 61.69L37.0161 66.6091ZM56.7409 69.917C57.9748 72.0081 58.7288 74.3562 58.9516 76.7729H49.9204L56.7409 69.917ZM61.6936 76.7729C60.8024 66.2148 51.5141 58.3648 40.9405 59.2733C31.6179 60.0617 24.2319 67.466 23.4436 76.7729H20.7016C21.6613 64.6894 32.2177 55.6739 44.2994 56.6337C55.0444 57.4907 63.5786 66.0263 64.4355 76.7729H61.6936ZM21.9355 53.4629C21.9355 48.1667 26.2369 43.8646 31.5323 43.8646H36.3649L41.4375 50.2063C41.9173 50.7891 42.7742 50.8919 43.3569 50.412C43.4425 50.3435 43.5111 50.2749 43.5625 50.2063L48.6351 43.8646H50.1603L40.4607 53.5657C32.9375 54.1999 26.1169 58.2449 21.9355 64.5352V53.4629ZM27.6764 27.4105H27.4194C25.9113 27.4105 24.6774 26.1764 24.6774 24.6681C24.6774 23.1598 25.9113 21.9258 27.4194 21.9258V24.6681C27.4194 25.5937 27.505 26.5021 27.6764 27.4105ZM30.1613 20.5546H38.9183C41.8317 20.5546 44.6079 19.3719 46.6129 17.2638C48.6179 19.3719 51.3942 20.5546 54.3075 20.5546H54.8387V24.6681C54.8387 31.4897 49.3206 37.0087 42.5 37.0087C35.6794 37.0087 30.1613 31.4897 30.1613 24.6681V20.5546ZM42.5 39.7511C43.8881 39.7511 45.2762 39.5454 46.6129 39.1683V42.0135L42.5 47.1555L38.3871 42.0135V39.1683C39.7238 39.5454 41.1119 39.7511 42.5 39.7511ZM63.0645 64.5352C60.374 60.4902 56.5696 57.3193 52.0968 55.4168L60.5111 46.9841C62.1391 48.7495 63.0474 51.0633 63.0645 53.4629V64.5352ZM49.2006 54.4056C47.6069 53.9599 45.996 53.6686 44.3508 53.5486L53.9476 43.9503C55.5071 44.0532 56.998 44.5159 58.3347 45.3215L49.2006 54.4056ZM57.5806 24.6681V21.9258C59.0887 21.9258 60.3226 23.1598 60.3226 24.6681C60.3226 26.1764 59.0887 27.4105 57.5806 27.4105H57.3236C57.495 26.5021 57.5806 25.5937 57.5806 24.6681ZM42.5 2.72926C49.3206 2.72926 54.8387 8.24825 54.8387 15.0699V17.8122H54.3075C51.6683 17.8122 49.2177 16.5096 47.7611 14.3157C47.3327 13.6815 46.4929 13.5273 45.8589 13.9386C45.7046 14.0415 45.5847 14.1615 45.4819 14.3157C44.0252 16.5096 41.5575 17.8122 38.9355 17.8122H30.1613V15.0699C30.1613 8.24825 35.6794 2.72926 42.5 2.72926ZM12.3387 24.6681C12.3387 17.0924 18.4738 10.9563 26.0484 10.9563H28.002C27.6079 12.2932 27.4194 13.6815 27.4194 15.0699V19.1834C24.3861 19.1834 21.9355 21.6344 21.9355 24.6681C21.9355 27.7019 24.3861 30.1528 27.4194 30.1528H28.4647C29.8186 33.5808 32.372 36.4088 35.6452 38.0885V41.1223H31.5323C24.7117 41.1223 19.1935 46.6413 19.1935 53.4629V70.1056C18.4567 72.248 18.0111 74.4933 17.8911 76.7729H12.3387V24.6681ZM82.2581 82.2576H2.74194V79.5153H82.2581V82.2576Z" fill="#262626"/>
</svg>
