<svg width="79" height="79" viewBox="0 0 79 79" fill="none" xmlns="http://www.w3.org/2000/svg">
<circle cx="39.5" cy="39.5" r="39.5" fill="white"/>
<path d="M43.2 25.0304C43.2 23.9088 42.2912 23 41.1696 23H38.832C37.7088 23 36.8 23.9088 36.8 25.0304C36.8 25.9552 36.1664 26.7488 35.304 27.088C35.168 27.1424 35.032 27.2 34.8992 27.2576C34.0496 27.6256 33.04 27.5136 32.384 26.8592C32.0033 26.4787 31.487 26.265 30.9488 26.265C30.4106 26.265 29.8943 26.4787 29.5136 26.8592L27.8592 28.5136C27.4787 28.8943 27.265 29.4106 27.265 29.9488C27.265 30.487 27.4787 31.0033 27.8592 31.384V31.384C28.5152 32.04 28.6272 33.048 28.256 33.8992C28.1977 34.0332 28.1417 34.1681 28.088 34.304C27.7488 35.1664 26.9552 35.8 26.0304 35.8C24.9088 35.8 24 36.7088 24 37.8304V40.1696C24 41.2912 24.9088 42.2 26.0304 42.2C26.9552 42.2 27.7488 42.8336 28.088 43.696C28.1424 43.832 28.2 43.968 28.256 44.1008C28.6256 44.9504 28.5136 45.96 27.8592 46.616C27.4787 46.9967 27.265 47.513 27.265 48.0512C27.265 48.5894 27.4787 49.1057 27.8592 49.4864L29.5136 51.1408C29.8943 51.5213 30.4106 51.735 30.9488 51.735C31.487 51.735 32.0033 51.5213 32.384 51.1408C33.04 50.4848 34.048 50.3728 34.8992 50.7424C35.032 50.8016 35.168 50.8576 35.304 50.912C36.1664 51.2512 36.8 52.0448 36.8 52.9696C36.8 54.0912 37.7088 55 38.8304 55H41.1696C42.2912 55 43.2 54.0912 43.2 52.9696C43.2 52.0448 43.8336 51.2512 44.696 50.9104C44.832 50.8576 44.968 50.8016 45.1008 50.744C45.9504 50.3728 46.96 50.4864 47.6144 51.1408C47.803 51.3294 48.0268 51.4791 48.2732 51.5811C48.5196 51.6832 48.7837 51.7358 49.0504 51.7358C49.3171 51.7358 49.5812 51.6832 49.8276 51.5811C50.074 51.4791 50.2979 51.3294 50.4864 51.1408L52.1408 49.4864C52.5213 49.1057 52.735 48.5894 52.735 48.0512C52.735 47.513 52.5213 46.9967 52.1408 46.616V46.616C51.4848 45.96 51.3728 44.952 51.7424 44.1008C51.8016 43.968 51.8576 43.832 51.912 43.696C52.2512 42.8336 53.0448 42.2 53.9696 42.2C55.0912 42.2 56 41.2912 56 40.1696V37.832C56 36.7104 55.0912 35.8016 53.9696 35.8016C53.0448 35.8016 52.2512 35.168 51.9104 34.3056C51.8568 34.1697 51.8008 34.0347 51.7424 33.9008C51.3744 33.0512 51.4864 32.0416 52.1408 31.3856C52.5213 31.0049 52.735 30.4886 52.735 29.9504C52.735 29.4122 52.5213 28.8959 52.1408 28.5152L50.4864 26.8608C50.1057 26.4803 49.5894 26.2666 49.0512 26.2666C48.513 26.2666 47.9967 26.4803 47.616 26.8608V26.8608C46.96 27.5168 45.952 27.6288 45.1008 27.2592C44.9669 27.2003 44.8319 27.1438 44.696 27.0896C43.8336 26.7488 43.2 25.9552 43.2 25.032V25.0304Z" stroke="#262626" stroke-width="3"/>
<path d="M46.4016 39C46.4016 40.6974 45.7273 42.3252 44.527 43.5255C43.3268 44.7257 41.6989 45.4 40.0016 45.4C38.3042 45.4 36.6763 44.7257 35.4761 43.5255C34.2758 42.3252 33.6016 40.6974 33.6016 39C33.6016 37.3026 34.2758 35.6747 35.4761 34.4745C36.6763 33.2743 38.3042 32.6 40.0016 32.6C41.6989 32.6 43.3268 33.2743 44.527 34.4745C45.7273 35.6747 46.4016 37.3026 46.4016 39V39Z" stroke="#262626" stroke-width="3"/>
</svg>
